<svg version="1.1" id="Layer_1" xmlns="http://www.w3.org/2000/svg" x="0" y="0" width="303.8" height="63.1" xml:space="preserve"><style>.st3{fill:#fff}</style><path class="st3" d="M69.7 56.4V36.6H58.6v-3.3h26v3.3H73.5v19.8zM115.8 56.3l-2.8-4.9H95.9L93 56.3h-4.4l13.7-23h4.2l13.6 23h-4.3zm-4.8-8.1L104.4 37l-6.6 11.2H111zM135.9 56.4c-1.1 0-2.1-.1-3.1-.2s-1.9-.4-2.7-.8c-.8-.4-1.5-1-1.9-1.8-.5-.8-.7-1.9-.7-3.1V50h3.6v.4c0 .5.1.9.2 1.2.1.3.3.6.6.8.3.2.8.4 1.3.5.6.1 1.3.2 2.2.2h9.1c1 0 1.9-.1 2.6-.2.6-.1 1.2-.3 1.5-.6.3-.3.6-.6.7-1 .2-.5.2-1.1.2-1.8 0-.6-.1-1.1-.2-1.5-.1-.4-.3-.6-.6-.8-.3-.2-.7-.4-1.3-.5-.6-.1-1.3-.1-2.2-.1h-5.6c-2.2 0-4.1-.1-5.7-.2-1.6-.1-2.8-.4-3.8-.8-1-.5-1.8-1.2-2.2-2.1-.4-.9-.6-2.1-.6-3.6 0-1.3.2-2.4.6-3.2.4-.9 1-1.5 1.8-2s1.8-.8 3-1c1.1-.2 2.5-.3 4-.3h6.3c1.8 0 3.4.1 4.6.4 1.2.2 2.2.6 3 1.1.7.5 1.3 1.2 1.6 2 .2.6.4 1.3.4 2.1v.4H149V39c0-.3-.1-.6-.1-.8-.1-.4-.3-.7-.8-1-.5-.3-1.2-.5-2.3-.5-1.1-.1-2.6-.1-4.5-.1h-3.1c-1.4 0-2.6 0-3.6.1-.9.1-1.7.2-2.2.5-.5.2-.9.5-1.1 1-.2.4-.4 1.1-.4 1.9 0 .6.1 1.1.2 1.5.1.3.3.6.6.8.3.2.8.4 1.5.5.8.1 1.7.1 2.8.1h8.7c3 0 5.1.4 6.4 1.4 1.4.9 2.1 2.4 2.1 4.4v1.4c0 1.4-.3 2.6-.8 3.4-.5.8-1.3 1.4-2.2 1.9-.9.4-1.8.7-2.9.8-1.1.1-2.1.2-3.2.2h-8.2zM181.8 56.4l-14.3-10.1.1 10.1h-3.9V33.3h3.9l-.1 8.9 13.2-8.9h6.6l-16.5 11 18 12.1zM206.8 56.4V36.6h-11.1v-3.3h26v3.3h-11.1v19.8zM238 56.4c-1.5 0-2.8-.2-3.8-.5-1.1-.4-1.9-.9-2.6-1.6-.6-.7-1.1-1.6-1.4-2.7-.3-1-.4-2.3-.4-3.7V42c0-1.4.1-2.6.4-3.7.3-1.1.7-2 1.4-2.7.6-.7 1.5-1.3 2.6-1.6 1-.3 2.3-.5 3.8-.5h12.5c1.5 0 2.8.2 3.8.5 1.1.4 1.9.9 2.6 1.6.6.7 1.1 1.6 1.4 2.7.3 1 .4 2.3.4 3.7v5.9c0 1.4-.1 2.6-.4 3.7-.3 1.1-.7 2-1.4 2.7-.6.7-1.5 1.3-2.6 1.6-1 .3-2.3.5-3.8.5H238zm.3-19.8c-.7 0-1.3.1-1.9.2-.6.1-1 .3-1.5.6-.4.3-.7.7-1 1.2-.2.5-.4 1.3-.4 2.1v8.2c0 .9.1 1.6.4 2.1.2.5.6.9 1 1.2.4.3.9.5 1.5.6.6.1 1.2.2 1.9.2h11.9c.7 0 1.3-.1 1.9-.2.6-.1 1-.3 1.5-.6.4-.3.7-.7 1-1.2.2-.5.4-1.3.4-2.1v-8.2c0-.9-.1-1.6-.4-2.1-.2-.5-.6-.9-1-1.2-.4-.3-.9-.5-1.5-.6-.6-.1-1.2-.2-1.9-.2h-11.9zM269 56.4v-23h18.5c1 0 1.9.1 2.7.2.9.2 1.6.5 2.2.9.6.5 1 1.1 1.3 2 .3.8.4 1.9.4 3.2 0 1.2-.1 2.3-.2 3.2-.1 1-.4 1.8-.9 2.5s-1.3 1.2-2.3 1.5c-.9.3-2.3.5-3.9.5h-14.1v8.9H269zm18-12.2c1.1 0 1.9-.2 2.5-.6.5-.4.8-1.1.8-2.1v-2.1c0-.6-.1-1.1-.2-1.4-.1-.3-.3-.6-.6-.8-.3-.2-.7-.3-1.1-.4-.5-.1-1-.1-1.6-.1h-14v7.6H287z"/><path d="M41.9 10.9c-2.5 0-6 1.7-6 5.8v34.9H40V16.7c0-.7.5-1.6 1.7-1.6h31.9v5H51.3c-5.1 0-6 3.2-6 6v30.7h-9.5v4.5h13.6V26.6c0-1.3.2-2.3 2-2.3h26.3V10.9H41.9z" fill="#80bc00"/><path d="M41.9 15.7c-.7 0-1.2.5-1.2 1.3v35.1h-5.3V19.4c0-3.5-2-6-5.9-6H6.7V8h31.9c1.6 0 2 1.2 2 1.9v.7s.6-.1 1.1-.1h3.1v-.6c0-2.2-1.1-4.1-3.1-5.1-1.3-.7-2.1-.9-2.8-.9H2.4v13.6h26.7c1.3 0 2 .9 2 2v36.9h13.6V15.7h-2.8z" fill="#babcbe"/><path class="st3" d="M302.2 53.9c0 2-1.6 3.5-3.6 3.5s-3.6-1.6-3.6-3.5 1.6-3.5 3.6-3.5c2.1 0 3.6 1.6 3.6 3.5zm-6.3 0c0 1.6 1.2 2.8 2.7 2.8 1.5 0 2.7-1.2 2.7-2.8 0-1.6-1.1-2.8-2.7-2.8-1.5 0-2.7 1.3-2.7 2.8zm2.2 1.8h-.8v-3.5c.3-.1.8-.1 1.3-.1.7 0 1 .1 1.2.3.2.1.3.4.3.8s-.3.7-.7.8c.3.1.5.4.6.9.1.5.2.7.3.9h-.9c-.1-.1-.2-.4-.3-.9-.1-.4-.3-.6-.7-.6h-.4v1.4zm0-1.9h.4c.4 0 .8-.1.8-.5 0-.3-.2-.5-.7-.5h-.4v1z"/></svg>
